<svg id="Calque_1" data-name="Calque 1" xmlns="http://www.w3.org/2000/svg" width="45" height="45" viewBox="0 0 45 45"><title>icon-instagram</title><path d="M30.314,6.49H15.648a8.666,8.666,0,0,0-8.657,8.657V29.814a8.666,8.666,0,0,0,8.657,8.656H30.315a8.666,8.666,0,0,0,8.656-8.656V15.147A8.666,8.666,0,0,0,30.314,6.49ZM22.981,31.224a8.744,8.744,0,1,1,8.744-8.744A8.753,8.753,0,0,1,22.981,31.224ZM31.935,15.8a2.584,2.584,0,1,1,2.584-2.584A2.587,2.587,0,0,1,31.935,15.8Z"/><path d="M22.981,15.611a6.869,6.869,0,1,0,6.87,6.869A6.877,6.877,0,0,0,22.981,15.611Z"/><path d="M31.935,12.505a.709.709,0,1,0,.709.709A.71.71,0,0,0,31.935,12.505Z"/></svg>