<svg id="Calque_1" data-name="Calque 1" xmlns="http://www.w3.org/2000/svg" width="45" height="45" viewBox="0 0 45 45"><title>icon-twitter</title><path d="M40.78,11.29a16,16,0,0,1-2.11,2.3A4.29,4.29,0,0,0,37,17.25c-.56,9.11-6.8,17.93-17.26,19.82A21.3,21.3,0,0,1,4.92,34.58l-.55-.34s-.06-.07-.15-.18A15.55,15.55,0,0,0,15.07,31,7.78,7.78,0,0,1,8.14,25.7h3l.07-.18A7.92,7.92,0,0,1,7.1,22.8a7.58,7.58,0,0,1-1.62-4.63l3,.86.1-.16c-3.15-2.78-3.81-6.06-2-10a21.58,21.58,0,0,0,15.54,7.91A7.7,7.7,0,0,1,23.16,11,7.53,7.53,0,0,1,34.48,9.46a1.13,1.13,0,0,0,1.28.28c1.3-.49,2.62-1,3.94-1.44a9.07,9.07,0,0,1-2.76,3.91c.65-.15,1.3-.29,1.94-.46s1.26-.4,1.9-.6Z"/></svg>